<svg width="432" height="395" viewBox="0 0 432 395" fill="none" xmlns="http://www.w3.org/2000/svg">
<path d="M393.75 94.5H334.312L300 57H187.5V94.5H283.5L317.813 132H393.75V357H93.75V188.25H56.25V357C56.25 377.625 73.125 394.5 93.75 394.5H393.75C414.375 394.5 431.25 377.625 431.25 357V132C431.25 111.375 414.375 94.5 393.75 94.5ZM150 244.5C150 296.25 192 338.25 243.75 338.25C295.5 338.25 337.5 296.25 337.5 244.5C337.5 192.75 295.5 150.75 243.75 150.75C192 150.75 150 192.75 150 244.5ZM243.75 188.25C274.687 188.25 300 213.563 300 244.5C300 275.437 274.687 300.75 243.75 300.75C212.813 300.75 187.5 275.437 187.5 244.5C187.5 213.563 212.813 188.25 243.75 188.25ZM93.75 94.5H150V57H93.75V0.75H56.25V57H0V94.5H56.25V150.75H93.75V94.5Z" fill="#BABABA"/>
</svg>
